#Comment line ignore any data following # character 
#Hierarchical Translation and Rotation (.htr) file 
[Header]	
#Header keywords are followed by a single value 
FileType HTR		#Single word string
DataType HTRS		#Translation followed by rotation and scale data
FileVersion 1		#integer
NumSegments 84		#integer
NumFrames 2		#integer
DataFrameRate 30		#integer, data frame rate in this file
EulerRotationOrder ZYX
CalibrationUnits mm
RotationUnits Degrees
GlobalAxisofGravity Y
BoneLengthAxis Y
ScaleFactor 1.00
[SegmentNames&Hierarchy]
#CHILD	PARENT
MASTER GLOBAL
root MASTER
chest root
L_mid_tent01 root
R_mid_tent01 root
spine01 root
Bip01_Neck chest
L_humerus chest
R_humerus chest
weapon_bone chest
Bip01_Head Bip01_Neck
eye_left_bone Bip01_Head
eye_right_bone Bip01_Head
L_forearm L_humerus
L_front_hand L_forearm
L_weapon_bone L_forearm
L_front_hand01_01 L_front_hand
L_front_hand02_01 L_front_hand
L_front_hand03_01 L_front_hand
L_front_hand01_02 L_front_hand01_01
L_front_hand02_02 L_front_hand02_01
L_front_hand03_02 L_front_hand03_01
R_forearm R_humerus
R_front_hand R_forearm
R_weapon_bone R_forearm
R_front_hand01_01 R_front_hand
R_front_hand02_01 R_front_hand
R_front_hand03_01 R_front_hand
R_front_hand01_02 R_front_hand01_01
R_front_hand02_02 R_front_hand02_01
R_front_hand03_02 R_front_hand03_01
null_rope01_connect L_mid_tent01
Rope1_Seg01 null_rope01_connect
Rope1_Seg02 Rope1_Seg01
Rope1_Seg03 Rope1_Seg02
Rope1_Seg04 Rope1_Seg03
Rope1_Seg05 Rope1_Seg04
Rope1_Seg06 Rope1_Seg05
Rope1_Seg07 Rope1_Seg06
Rope1_Seg09 Rope1_Seg07
L_mid_hand01 Rope1_Seg09
L_mid_hand02 Rope1_Seg09
L_mid_hand03 Rope1_Seg09
null_rope02_connect R_mid_tent01
Rope2_Seg01 null_rope02_connect
Rope2_Seg02 Rope2_Seg01
Rope2_Seg03 Rope2_Seg02
Rope2_Seg04 Rope2_Seg03
Rope2_Seg05 Rope2_Seg04
Rope2_Seg06 Rope2_Seg05
Rope2_Seg07 Rope2_Seg06
Rope2_Seg09 Rope2_Seg07
R_mid_hand01 Rope2_Seg09
R_mid_hand02 Rope2_Seg09
R_mid_hand03 Rope2_Seg09
spine02 spine01
spine03 spine02
pelvis spine03
null_rope03_connect pelvis
null_rope04_connect pelvis
Rope3_Seg01 null_rope03_connect
Rope3_Seg02 Rope3_Seg01
Rope3_Seg03 Rope3_Seg02
Rope3_Seg04 Rope3_Seg03
Rope3_Seg05 Rope3_Seg04
Rope3_Seg06 Rope3_Seg05
Rope3_Seg07 Rope3_Seg06
Rope3_Seg08 Rope3_Seg07
Rope3_Seg09 Rope3_Seg08
R_rear_hand01 Rope3_Seg09
R_rear_hand02 Rope3_Seg09
R_rear_hand03 Rope3_Seg09
Rope4_Seg01 null_rope04_connect
Rope4_Seg02 Rope4_Seg01
Rope4_Seg03 Rope4_Seg02
Rope4_Seg04 Rope4_Seg03
Rope4_Seg05 Rope4_Seg04
Rope4_Seg06 Rope4_Seg05
Rope4_Seg07 Rope4_Seg06
Rope4_Seg08 Rope4_Seg07
Rope4_Seg09 Rope4_Seg08
L_rear_hand01 Rope4_Seg09
L_rear_hand02 Rope4_Seg09
L_rear_hand03 Rope4_Seg09
[BasePosition]
#SegmentName Tx, Ty, Tz, Rx, Ry, Rz, BoneLength
MASTER 0.000000 0.000000 0.000000 -90.000000 0.000000 0.000000 10.000000 
root 0.000000 0.000000 0.000000 0.000000 0.000000 0.000000 10.000000 
chest 0.000000 0.000000 0.000000 0.000000 0.000000 0.000000 10.000000 
L_mid_tent01 0.000000 0.000000 0.000000 0.000000 0.000000 0.000000 10.000000 
R_mid_tent01 0.000000 0.000000 0.000000 0.000000 0.000000 0.000000 10.000000 
spine01 0.000000 0.000000 0.000000 0.000000 0.000000 0.000000 10.000000 
Bip01_Neck 0.000000 0.000000 0.000000 0.000000 0.000000 0.000000 10.000000 
L_humerus 0.000000 0.000000 0.000000 0.000000 0.000000 0.000000 10.000000 
R_humerus 0.000000 0.000000 0.000000 0.000000 0.000000 0.000000 10.000000 
weapon_bone 0.000000 0.000000 0.000000 0.000000 0.000000 0.000000 10.000000 
Bip01_Head 0.000000 0.000000 0.000000 0.000000 0.000000 0.000000 10.000000 
eye_left_bone 0.000000 0.000000 0.000000 0.000000 0.000000 0.000000 10.000000 
eye_right_bone 0.000000 0.000000 0.000000 0.000000 0.000000 0.000000 10.000000 
L_forearm 0.000000 0.000000 0.000000 0.000000 0.000000 0.000000 10.000000 
L_front_hand 0.000000 0.000000 0.000000 0.000000 0.000000 0.000000 10.000000 
L_weapon_bone 0.000000 0.000000 0.000000 0.000000 0.000000 0.000000 10.000000 
L_front_hand01_01 0.000000 0.000000 0.000000 0.000000 0.000000 0.000000 10.000000 
L_front_hand02_01 0.000000 0.000000 0.000000 0.000000 0.000000 0.000000 10.000000 
L_front_hand03_01 0.000000 0.000000 0.000000 0.000000 0.000000 0.000000 10.000000 
L_front_hand01_02 0.000000 0.000000 0.000000 0.000000 0.000000 0.000000 10.000000 
L_front_hand02_02 0.000000 0.000000 0.000000 0.000000 0.000000 0.000000 10.000000 
L_front_hand03_02 0.000000 0.000000 0.000000 0.000000 0.000000 0.000000 10.000000 
R_forearm 0.000000 0.000000 0.000000 0.000000 0.000000 0.000000 10.000000 
R_front_hand 0.000000 0.000000 0.000000 0.000000 0.000000 0.000000 10.000000 
R_weapon_bone 0.000000 0.000000 0.000000 0.000000 0.000000 0.000000 10.000000 
R_front_hand01_01 0.000000 0.000000 0.000000 0.000000 0.000000 0.000000 10.000000 
R_front_hand02_01 0.000000 0.000000 0.000000 0.000000 0.000000 0.000000 10.000000 
R_front_hand03_01 0.000000 0.000000 0.000000 0.000000 0.000000 0.000000 10.000000 
R_front_hand01_02 0.000000 0.000000 0.000000 0.000000 0.000000 0.000000 10.000000 
R_front_hand02_02 0.000000 0.000000 0.000000 0.000000 0.000000 0.000000 10.000000 
R_front_hand03_02 0.000000 0.000000 0.000000 0.000000 0.000000 0.000000 10.000000 
null_rope01_connect 0.000000 0.000000 0.000000 0.000000 0.000000 0.000000 10.000000 
Rope1_Seg01 0.000000 0.000000 0.000000 0.000000 0.000000 0.000000 10.000000 
Rope1_Seg02 0.000000 0.000000 0.000000 0.000000 0.000000 0.000000 10.000000 
Rope1_Seg03 0.000000 0.000000 0.000000 0.000000 0.000000 0.000000 10.000000 
Rope1_Seg04 0.000000 0.000000 0.000000 0.000000 0.000000 0.000000 10.000000 
Rope1_Seg05 0.000000 0.000000 0.000000 0.000000 0.000000 0.000000 10.000000 
Rope1_Seg06 0.000000 0.000000 0.000000 0.000000 0.000000 0.000000 10.000000 
Rope1_Seg07 0.000000 0.000000 0.000000 0.000000 0.000000 0.000000 10.000000 
Rope1_Seg09 0.000000 0.000000 0.000000 0.000000 0.000000 0.000000 10.000000 
L_mid_hand01 0.000000 0.000000 0.000000 0.000000 0.000000 0.000000 10.000000 
L_mid_hand02 0.000000 0.000000 0.000000 0.000000 0.000000 0.000000 10.000000 
L_mid_hand03 0.000000 0.000000 0.000000 0.000000 0.000000 0.000000 10.000000 
null_rope02_connect 0.000000 0.000000 0.000000 0.000000 0.000000 0.000000 10.000000 
Rope2_Seg01 0.000000 0.000000 0.000000 0.000000 0.000000 0.000000 10.000000 
Rope2_Seg02 0.000000 0.000000 0.000000 0.000000 0.000000 0.000000 10.000000 
Rope2_Seg03 0.000000 0.000000 0.000000 0.000000 0.000000 0.000000 10.000000 
Rope2_Seg04 0.000000 0.000000 0.000000 0.000000 0.000000 0.000000 10.000000 
Rope2_Seg05 0.000000 0.000000 0.000000 0.000000 0.000000 0.000000 10.000000 
Rope2_Seg06 0.000000 0.000000 0.000000 0.000000 0.000000 0.000000 10.000000 
Rope2_Seg07 0.000000 0.000000 0.000000 0.000000 0.000000 0.000000 10.000000 
Rope2_Seg09 0.000000 0.000000 0.000000 0.000000 0.000000 0.000000 10.000000 
R_mid_hand01 0.000000 0.000000 0.000000 0.000000 0.000000 0.000000 10.000000 
R_mid_hand02 0.000000 0.000000 0.000000 0.000000 0.000000 0.000000 10.000000 
R_mid_hand03 0.000000 0.000000 0.000000 0.000000 0.000000 0.000000 10.000000 
spine02 0.000000 0.000000 0.000000 0.000000 0.000000 0.000000 10.000000 
spine03 0.000000 0.000000 0.000000 0.000000 0.000000 0.000000 10.000000 
pelvis 0.000000 0.000000 0.000000 0.000000 0.000000 0.000000 10.000000 
null_rope03_connect 0.000000 0.000000 0.000000 0.000000 0.000000 0.000000 10.000000 
null_rope04_connect 0.000000 0.000000 0.000000 0.000000 0.000000 0.000000 10.000000 
Rope3_Seg01 0.000000 0.000000 0.000000 0.000000 0.000000 0.000000 10.000000 
Rope3_Seg02 0.000000 0.000000 0.000000 0.000000 0.000000 0.000000 10.000000 
Rope3_Seg03 0.000000 0.000000 0.000000 0.000000 0.000000 0.000000 10.000000 
Rope3_Seg04 0.000000 0.000000 0.000000 0.000000 0.000000 0.000000 10.000000 
Rope3_Seg05 0.000000 0.000000 0.000000 0.000000 0.000000 0.000000 10.000000 
Rope3_Seg06 0.000000 0.000000 0.000000 0.000000 0.000000 0.000000 10.000000 
Rope3_Seg07 0.000000 0.000000 0.000000 0.000000 0.000000 0.000000 10.000000 
Rope3_Seg08 0.000000 0.000000 0.000000 0.000000 0.000000 0.000000 10.000000 
Rope3_Seg09 0.000000 0.000000 0.000000 0.000000 0.000000 0.000000 10.000000 
R_rear_hand01 0.000000 0.000000 0.000000 0.000000 0.000000 0.000000 10.000000 
R_rear_hand02 0.000000 0.000000 0.000000 0.000000 0.000000 0.000000 10.000000 
R_rear_hand03 0.000000 0.000000 0.000000 0.000000 0.000000 0.000000 10.000000 
Rope4_Seg01 0.000000 0.000000 0.000000 0.000000 0.000000 0.000000 10.000000 
Rope4_Seg02 0.000000 0.000000 0.000000 0.000000 0.000000 0.000000 10.000000 
Rope4_Seg03 0.000000 0.000000 0.000000 0.000000 0.000000 0.000000 10.000000 
Rope4_Seg04 0.000000 0.000000 0.000000 0.000000 0.000000 0.000000 10.000000 
Rope4_Seg05 0.000000 0.000000 0.000000 0.000000 0.000000 0.000000 10.000000 
Rope4_Seg06 0.000000 0.000000 0.000000 0.000000 0.000000 0.000000 10.000000 
Rope4_Seg07 0.000000 0.000000 0.000000 0.000000 0.000000 0.000000 10.000000 
Rope4_Seg08 0.000000 0.000000 0.000000 0.000000 0.000000 0.000000 10.000000 
Rope4_Seg09 0.000000 0.000000 0.000000 0.000000 0.000000 0.000000 10.000000 
L_rear_hand01 0.000000 0.000000 0.000000 0.000000 0.000000 0.000000 10.000000 
L_rear_hand02 0.000000 0.000000 0.000000 0.000000 0.000000 0.000000 10.000000 
L_rear_hand03 0.000000 0.000000 0.000000 0.000000 0.000000 0.000000 10.000000 
#Beginning of Data. Separated by tabs
#Fr	Tx	Ty	Tz	Rx	Ry	Rz	SF
[MASTER]
11 -0.000696 4753.695801 1347.674683 0.001660 0.001660 0.001660 4941.037598
12 -0.000750 5130.031738 1403.262329 0.001660 0.001660 0.001660 5318.493164
[root]
11 -29.992676 -28.745117 1482.583374 -82.328857 -31.289316 -96.692123 1483.165405
12 -31.772535 -32.596748 1487.103760 -81.771477 -32.448318 -97.123283 1487.800293
[chest]
11 -84.512650 -34.090519 0.000000 -1.178009 1.934479 -155.861618 91.129311
12 -84.512650 -34.090519 0.000000 -1.175285 1.983775 -157.372375 91.129311
[L_mid_tent01]
11 27.299282 22.179216 -249.918701 -0.694649 2.487024 44.563934 252.381714
12 27.299297 22.179226 -249.918701 -1.992975 4.035649 43.690258 252.381714
[R_mid_tent01]
11 23.228794 24.509907 226.238495 171.023056 -5.290180 48.922161 228.744751
12 23.228794 24.509907 226.238495 173.090103 -6.091858 47.633884 228.744751
[spine01]
11 -0.361383 -0.195265 0.000000 0.002061 0.001124 32.802483 0.410763
12 -0.361383 -0.195265 0.000000 0.002060 0.001125 32.699398 0.410763
[Bip01_Neck]
11 165.484543 71.581718 0.000119 176.643677 -1.657967 43.431911 180.302734
12 165.484543 71.581718 0.000119 176.643677 -1.657967 43.431911 180.302734
[L_humerus]
11 -13.983130 -135.272980 -120.471481 -7.039400 63.862324 82.803917 181.680161
12 -13.983130 -135.272980 -120.471481 -7.070988 63.719852 82.769905 181.680161
[R_humerus]
11 -13.983309 -135.273102 125.287651 25.644770 -64.646278 70.079170 184.909012
12 -13.983309 -135.273102 125.287651 25.590258 -64.500420 70.137939 184.909012
[weapon_bone]
11 235.964890 -300.705902 0.000000 0.000000 -89.951546 -128.212341 382.234833
12 235.964890 -300.705902 0.000000 0.000000 -89.951546 -128.212341 382.234833
[Bip01_Head]
11 213.626083 185.209641 18.310585 4.971896 5.703756 -43.874699 283.326660
12 213.660263 185.113220 19.547653 4.967037 4.250798 -43.886795 283.372040
[eye_left_bone]
11 -24.626970 125.451866 -64.772606 0.000000 -90.000000 -99.840431 143.318359
12 -24.626970 125.451866 -64.772606 0.000000 -90.000000 -99.840431 143.318359
[eye_right_bone]
11 -24.626970 125.451866 64.327362 0.000000 -89.965736 80.156380 143.117676
12 -24.626970 125.451866 64.327362 0.000000 -89.965736 80.156380 143.117676
[L_forearm]
11 322.776093 0.000000 -0.000119 0.000430 -0.002308 -111.110794 322.776093
12 322.776093 0.000000 -0.000119 0.000431 -0.002307 -111.167755 322.776093
[L_front_hand]
11 241.149185 -0.042021 -3.300071 -178.667953 -1.835447 -27.422350 241.171753
12 241.149185 -0.042021 -3.300071 -178.667953 -1.835447 -27.422350 241.171753
[L_weapon_bone]
11 156.183838 0.000000 0.000000 0.000014 0.000007 0.000001 156.183838
12 156.183838 0.000000 0.000000 0.000014 0.000007 0.000001 156.183838
[L_front_hand01_01]
11 86.095154 20.947098 -0.655860 -0.282467 -0.528169 66.067474 88.609184
12 86.095154 20.947098 -0.655860 -0.274633 -0.532782 65.272827 88.609184
[L_front_hand02_01]
11 86.935165 -11.437475 24.513514 141.960785 -54.937954 -46.642345 91.046425
12 86.935165 -11.437475 24.513514 141.090271 -54.445614 -45.572052 91.046425
[L_front_hand03_01]
11 86.637497 -14.123976 -20.424902 -142.303543 53.163303 -48.671032 90.126129
12 86.637497 -14.123976 -20.424902 -141.476303 52.677540 -47.637543 90.126129
[L_front_hand01_02]
11 71.020905 -0.000179 0.000030 0.000315 -0.002326 -105.442802 71.020905
12 71.020905 -0.000179 0.000030 0.000315 -0.002326 -105.419182 71.020905
[L_front_hand02_02]
11 71.020927 -0.000119 0.000060 0.000315 -0.002326 -105.442802 71.020927
12 71.020927 -0.000119 0.000060 0.000315 -0.002326 -105.419182 71.020927
[L_front_hand03_02]
11 71.020905 -0.000060 0.000060 0.000315 -0.002326 -105.442802 71.020905
12 71.020905 -0.000060 0.000060 0.000315 -0.002326 -105.419182 71.020905
[R_forearm]
11 322.776428 -0.000060 0.000030 0.201102 0.068184 -109.782852 322.776428
12 322.776428 -0.000060 0.000030 0.201080 0.068247 -109.819138 322.776428
[R_front_hand]
11 238.847015 -0.006795 2.210259 -2.635298 -10.645461 -26.312506 238.857239
12 238.847015 -0.006795 2.210259 -2.635298 -10.645461 -26.312506 238.857239
[R_weapon_bone]
11 155.664093 0.002503 -0.000030 0.003487 0.001180 -90.988930 155.664078
12 155.664093 0.002503 -0.000030 0.003487 0.001180 -90.988930 155.664078
[R_front_hand01_01]
11 87.624611 14.231146 22.918642 -141.947067 -54.924736 46.726738 91.683487
12 87.624611 14.231146 22.918642 -140.500656 -54.097115 44.955364 91.683487
[R_front_hand02_01]
11 89.356956 14.367283 -19.491137 142.634140 53.329124 49.315857 92.579636
12 89.356956 14.367283 -19.491137 141.255966 52.517570 47.591045 92.579636
[R_front_hand03_01]
11 87.286232 -22.307278 -0.143439 0.092230 -0.445770 -66.286453 90.091743
12 87.286232 -22.307278 -0.143439 0.080269 -0.445286 -64.968231 90.091743
[R_front_hand01_02]
11 71.020905 0.000060 0.000119 0.002323 -0.000334 106.381714 71.020905
12 71.020905 0.000060 0.000119 0.002323 -0.000334 106.381714 71.020905
[R_front_hand02_02]
11 71.020844 -0.000030 -0.000119 0.002323 -0.000334 106.381714 71.020836
12 71.020844 -0.000030 -0.000119 0.002323 -0.000334 106.381714 71.020836
[R_front_hand03_02]
11 71.020905 0.000000 0.000030 0.002323 -0.000334 106.381714 71.020905
12 71.020905 0.000000 0.000030 0.002323 -0.000334 106.381714 71.020905
[null_rope01_connect]
11 328.732483 0.000000 -0.000238 -42.988770 -82.731346 119.924118 328.732483
12 328.732483 0.000000 -0.000238 -56.108955 -82.454597 134.945160 328.732483
[Rope1_Seg01]
11 -0.000029 -0.000058 0.000116 -34.785515 24.702162 -85.487839 0.000133
12 -0.000028 -0.000056 0.000113 -32.069588 22.586023 -95.110901 0.000129
[Rope1_Seg02]
11 139.999863 -0.000179 0.000000 9.810910 -4.749651 -3.740277 139.999863
12 139.999863 -0.000179 0.000000 12.603681 -7.772983 -1.027576 139.999863
[Rope1_Seg03]
11 139.999924 0.000060 -0.000060 11.187638 -8.291982 -2.590608 139.999924
12 139.999924 0.000060 -0.000060 10.325413 -9.895398 0.471127 139.999924
[Rope1_Seg04]
11 139.999924 -0.000060 -0.000119 0.427896 1.006753 -1.592163 139.999924
12 139.999924 -0.000060 -0.000119 -3.575506 3.441535 -0.303802 139.999924
[Rope1_Seg05]
11 139.999832 0.000119 -0.000060 -9.870853 8.656576 -1.633389 139.999832
12 139.999832 0.000119 -0.000060 -10.466622 8.200241 -0.850271 139.999832
[Rope1_Seg06]
11 139.999954 0.000119 -0.000060 -5.031851 3.445638 -0.159687 139.999954
12 139.999954 0.000119 -0.000060 -4.717672 2.868949 0.264718 139.999954
[Rope1_Seg07]
11 139.999985 0.000060 0.000000 -2.980859 1.832994 0.028181 139.999985
12 139.999985 0.000060 0.000000 -3.070901 1.677010 0.298115 139.999985
[Rope1_Seg09]
11 121.602913 0.000119 -0.000089 -89.793175 -1.359789 0.847147 121.602913
12 121.602913 0.000119 -0.000089 -89.793175 -1.359789 0.847147 121.602913
[L_mid_hand01]
11 103.859421 1.038730 8.195221 110.016693 -43.583393 -14.630751 104.187431
12 103.859421 1.038730 8.195221 111.216125 -46.770245 -16.325298 104.187431
[L_mid_hand02]
11 105.572853 -4.139662 -10.864139 -148.402451 33.171711 -41.059566 106.211075
12 105.572853 -4.139662 -10.864139 -150.384232 34.904911 -44.592556 106.211075
[L_mid_hand03]
11 104.641464 17.579376 -3.913581 -13.575850 13.082139 47.042397 106.179977
12 104.641464 17.579376 -3.913581 -12.781249 13.855401 50.452690 106.179977
[null_rope02_connect]
11 328.732849 0.000179 -0.000119 -84.284378 84.992188 22.278648 328.732849
12 328.732849 0.000179 -0.000119 -109.581116 84.750137 -5.536389 328.732849
[Rope2_Seg01]
11 0.000047 0.000116 0.000000 100.514809 16.879169 -113.255531 0.000125
12 0.000048 0.000113 0.000000 99.966728 13.476055 -106.033310 0.000122
[Rope2_Seg02]
11 139.999741 -0.000060 -0.000119 -0.034476 10.218421 -5.515150 139.999756
12 139.999741 -0.000060 -0.000119 0.618063 10.759666 -6.709992 139.999756
[Rope2_Seg03]
11 140.000107 0.000030 0.000000 2.356498 12.598536 -9.404547 140.000107
12 140.000107 0.000030 0.000000 5.938496 11.303148 -10.950126 140.000107
[Rope2_Seg04]
11 139.999802 0.000000 -0.000060 9.890180 12.228646 -11.708145 139.999802
12 139.999802 0.000000 -0.000060 7.224423 7.143476 -7.268444 139.999802
[Rope2_Seg05]
11 139.999985 -0.000060 0.000119 -26.786091 4.404627 14.101326 139.999985
12 139.999985 -0.000060 0.000119 -25.612053 2.063819 15.932470 139.999985
[Rope2_Seg06]
11 139.999893 -0.000030 -0.000119 -15.521956 -6.154329 16.606161 139.999893
12 139.999893 -0.000030 -0.000119 -13.452687 -6.367342 15.774008 139.999893
[Rope2_Seg07]
11 139.999893 0.000060 -0.000060 -4.352231 -3.324233 6.543343 139.999893
12 139.999893 0.000060 -0.000060 -3.962856 -3.856292 6.714257 139.999893
[Rope2_Seg09]
11 121.338966 0.000089 -0.000060 33.793236 -1.359788 -0.847141 121.338966
12 121.338966 0.000089 -0.000060 33.793236 -1.359788 -0.847141 121.338966
[R_mid_hand01]
11 104.680779 11.144459 -10.335981 -36.116535 33.174706 39.598408 105.778534
12 104.680779 11.144459 -10.335981 -36.922554 32.243565 38.107742 105.778534
[R_mid_hand02]
11 104.070427 2.443552 8.231699 69.680679 -44.419243 15.065832 104.424065
12 104.070427 2.443552 8.231699 70.193451 -42.958271 14.324638 104.424065
[R_mid_hand03]
11 106.028137 -11.221827 -5.996406 -170.354065 12.593579 -49.350628 106.788818
12 106.028137 -11.221827 -5.996406 -170.013962 12.325404 -47.779564 106.788818
[spine02]
11 129.756927 0.001550 0.000119 0.530191 -4.024908 -15.374445 129.756927
12 129.756927 0.001550 0.000119 0.537560 -4.023919 -15.444612 129.756927
[spine03]
11 78.614166 0.081518 -4.899008 1.995888 3.780540 17.997084 78.766708
12 78.614174 0.081522 -4.899008 1.999596 3.776836 18.047235 78.766716
[pelvis]
11 169.435242 0.051022 0.000000 -0.070208 -0.177785 17.188129 169.435257
12 169.435242 0.051022 0.000000 -0.070348 -0.177729 17.278177 169.435257
[null_rope03_connect]
11 -1.257226 -2.466202 137.391083 -16.746609 -81.828415 85.849663 137.418976
12 -1.257226 -2.466202 137.391083 -15.760712 -81.474785 86.108231 137.418976
[null_rope04_connect]
11 -1.259640 -2.480268 -137.844437 -16.746609 -81.828415 85.849663 137.872513
12 -1.259640 -2.480268 -137.844437 -15.760712 -81.474785 86.108231 137.872513
[Rope3_Seg01]
11 -0.000036 0.000000 -0.000036 -145.793930 28.048552 -108.524704 0.000051
12 -0.000036 0.000000 -0.000040 -143.652115 25.016161 -108.347496 0.000054
[Rope3_Seg02]
11 139.999924 -0.000119 0.000060 1.082814 -3.941047 -8.476029 139.999924
12 139.999924 -0.000119 0.000060 0.992208 -4.807081 -9.262306 139.999924
[Rope3_Seg03]
11 139.999924 -0.000119 0.000119 0.770014 -3.945545 -8.177347 139.999924
12 139.999924 -0.000119 0.000119 0.712659 -4.711769 -8.817507 139.999924
[Rope3_Seg04]
11 139.999924 0.000119 0.000000 0.591172 -7.324494 -10.502646 139.999924
12 139.999924 0.000119 0.000000 0.730445 -8.636901 -11.395370 139.999924
[Rope3_Seg05]
11 139.999924 -0.000238 0.000060 0.311910 -3.270684 -6.175079 139.999924
12 139.999924 -0.000238 0.000060 0.291787 -3.445343 -6.016664 139.999924
[Rope3_Seg06]
11 139.999893 -0.000119 -0.000060 0.306551 4.744530 0.548957 139.999893
12 139.999893 -0.000119 -0.000060 0.096522 5.378932 1.070709 139.999893
[Rope3_Seg07]
11 139.999771 0.000060 -0.000119 1.641817 11.615588 5.405708 139.999771
12 139.999771 0.000060 -0.000119 1.955542 14.578444 7.297491 139.999771
[Rope3_Seg08]
11 139.999985 -0.000060 0.000000 1.733590 6.896280 2.013972 139.999985
12 139.999985 -0.000060 0.000000 2.391611 9.457703 3.441230 139.999985
[Rope3_Seg09]
11 90.185997 -0.000179 -0.000060 89.793228 -1.359877 -0.847183 90.185997
12 90.185997 -0.000179 -0.000060 89.793228 -1.359877 -0.847183 90.185997
[R_rear_hand01]
11 103.366196 -6.073594 -10.757982 -165.009155 19.819437 -41.100956 104.101845
12 103.366196 -6.073594 -10.757982 -164.755127 19.627697 -40.352161 104.101845
[R_rear_hand02]
11 100.509819 12.039542 -7.992327 -30.502344 25.155792 38.836960 101.543350
12 100.509819 12.039542 -7.992327 -30.792652 24.782450 38.141541 101.543350
[R_rear_hand03]
11 101.539970 5.215704 5.435467 82.364601 -41.773376 8.967985 101.819031
12 101.539970 5.215704 5.435467 82.448349 -41.048256 8.840383 101.819031
[Rope4_Seg01]
11 0.000010 0.000038 -0.000114 43.137379 0.636078 -56.537956 0.000121
12 0.000010 0.000038 -0.000114 42.736462 -3.041467 -63.748062 0.000121
[Rope4_Seg02]
11 139.999985 0.000060 0.000119 12.827158 -6.094256 -22.550760 139.999985
12 139.999985 0.000060 0.000119 8.911298 -5.650889 -19.716064 139.999985
[Rope4_Seg03]
11 139.999924 0.000000 -0.000238 4.722263 -7.234421 -15.038345 139.999924
12 139.999924 0.000000 -0.000238 3.248532 -6.098542 -13.070908 139.999924
[Rope4_Seg04]
11 139.999985 0.000000 0.000119 1.596925 -5.390821 -10.103491 139.999985
12 139.999985 0.000000 0.000119 0.952164 -4.340162 -8.049084 139.999985
[Rope4_Seg05]
11 139.999802 -0.000060 -0.000119 0.116543 -1.263497 -0.998730 139.999802
12 139.999802 -0.000060 -0.000119 0.104326 0.298828 -0.458023 139.999802
[Rope4_Seg06]
11 139.999924 0.000000 0.000060 -0.106550 1.129518 4.586708 139.999924
12 139.999924 0.000000 0.000060 0.029380 3.500177 4.308321 139.999924
[Rope4_Seg07]
11 139.999802 0.000000 0.000000 -0.568172 2.185381 7.539925 139.999802
12 139.999802 0.000000 0.000000 -0.140089 3.302869 4.011058 139.999802
[Rope4_Seg08]
11 139.999924 0.000000 0.000119 -2.023559 0.616315 3.419233 139.999924
12 139.999924 0.000000 0.000119 -1.649535 1.650086 1.793421 139.999924
[Rope4_Seg09]
11 90.185791 0.000060 0.000060 -135.617828 2.228885 0.850567 90.185791
12 90.185791 0.000060 0.000060 -135.617828 2.228885 0.850567 90.185791
[L_rear_hand01]
11 101.696655 -8.392275 -7.654577 -28.015862 -27.942142 135.607529 102.329041
12 101.696655 -8.392275 -7.654577 -26.077669 -29.734318 131.595917 102.329041
[L_rear_hand02]
11 102.726799 -1.568258 5.773216 81.577332 47.415264 169.913025 102.900848
12 102.726799 -1.568258 5.773216 80.880585 51.310986 168.994995 102.900848
[L_rear_hand03]
11 104.552910 9.721220 -10.420293 -167.078079 -21.194330 -132.993347 105.519653
12 104.552910 9.721220 -10.420293 -168.606277 -22.023737 -128.845825 105.519653
